<svg width="32" height="32" viewBox="0 0 32 32" fill="none" xmlns="http://www.w3.org/2000/svg">
<rect x="0.5" y="0.5" width="31" height="31" rx="6.5" fill="white" stroke="#E3E3E3"/>
<path d="M21.2882 11.2126L21.2878 11.2122C20.9305 10.8647 20.5091 10.5884 20.0463 10.3984L20.0457 10.3981C19.5656 10.2003 19.0506 10.0989 18.5305 10.1001L18.5293 10.1001C17.7983 10.1001 17.0861 10.2987 16.468 10.6729L16.468 10.6729C16.3201 10.7624 16.18 10.8605 16.0475 10.9671L15.734 11.2194L15.4205 10.9671C15.2881 10.8605 15.148 10.7624 15.0001 10.6729L15.0001 10.6729C14.3819 10.2987 13.6698 10.1001 12.9387 10.1001C12.4114 10.1001 11.9028 10.2001 11.4224 10.3981L11.4218 10.3983C10.9573 10.5892 10.5394 10.8632 10.1801 11.2123L10.1795 11.213C9.82308 11.558 9.5386 11.9689 9.34196 12.4222L21.2882 11.2126ZM21.2882 11.2126C21.6442 11.5581 21.9288 11.969 22.1261 12.4222C22.3307 12.8938 22.4347 13.393 22.4332 13.9071V13.9085C22.4332 14.3903 22.3341 14.9033 22.1283 15.4372L22.1278 15.4383M21.2882 11.2126L22.1278 15.4383M12.2447 19.2607L12.2447 19.2608C13.0008 19.9535 13.7551 20.5409 14.3294 20.9604C14.6161 21.1698 14.857 21.3367 15.0294 21.4532C15.1156 21.5114 15.1846 21.557 15.2334 21.5888C15.2579 21.6048 15.2771 21.6172 15.2909 21.626C15.3059 21.6356 15.3119 21.6393 15.3112 21.6389L15.3191 21.6437L15.3191 21.6438L15.7131 21.8945C15.7132 21.8946 15.7132 21.8946 15.7133 21.8947C15.7186 21.898 15.7254 21.9001 15.7332 21.9001C15.741 21.9001 15.7478 21.898 15.7531 21.8947C15.7531 21.8946 15.7532 21.8946 15.7533 21.8945L16.1473 21.6438L16.1474 21.6437C16.2026 21.6086 17.7046 20.6493 19.2217 19.2607H12.2447ZM12.2447 19.2607C11.3319 18.4246 10.6087 17.6104 10.0894 16.8423L12.2447 19.2607ZM22.1278 15.4383C21.9574 15.8838 21.7052 16.3561 21.3772 16.842M22.1278 15.4383L21.3772 16.842M21.3772 16.842C20.8579 17.6102 20.1346 18.4244 19.2219 19.2606L21.3772 16.842ZM9.0332 13.9085C9.0332 13.3934 9.13739 12.8938 9.34194 12.4222L10.0894 16.8423C9.76188 16.3572 9.5108 15.8844 9.33812 15.4372C9.13233 14.9033 9.0332 14.3903 9.0332 13.9085Z" stroke="#ECECEC"/>
</svg>
